<svg xmlns="http://www.w3.org/2000/svg" width="0" height="0">

	<svg id="sheet-ball" viewBox="0 0 384 32">
		<style type="text/css">
			.st0{fill:url(#SVGID_1_);}
			.st1{fill:#394C59;}
			.st2{fill:url(#SVGID_2_);}
			.st3{fill:url(#SVGID_3_);}
			.st4{fill:url(#SVGID_4_);}
			.st5{fill:url(#SVGID_5_);}
			.st6{fill:url(#SVGID_6_);}
			.st7{fill:url(#SVGID_7_);}
			.st8{fill:url(#SVGID_8_);}
			.st9{fill:url(#SVGID_9_);}
			.st10{fill:url(#SVGID_10_);}
			.st11{fill:url(#SVGID_11_);}
			.st12{fill:url(#SVGID_12_);}
		</style>
		<g>
			<radialGradient id="SVGID_1_" cx="15.9756" cy="15.9958" r="13.595" gradientUnits="userSpaceOnUse">
				<stop  offset="0" style="stop-color:#F5F7FA"/>
				<stop  offset="0.3377" style="stop-color:#F2F5F8"/>
				<stop  offset="0.5542" style="stop-color:#EAEDF3"/>
				<stop  offset="0.7366" style="stop-color:#DBE1E9"/>
				<stop  offset="0.8992" style="stop-color:#C6CFDB"/>
				<stop  offset="1" style="stop-color:#B5C1D0"/>
			</radialGradient>
			<circle class="st0" cx="15.98" cy="16" r="13.59"/>
			<polygon class="st1" points="11.18,16.27 16.42,12.33 21.38,16.27 19.48,22.11 13.22,22.11 	"/>
			<path class="st1" d="M2.4,15.42c0.16,0.91,1.31,2.47,1.31,2.47l2.55-3.66V8.85c0,0-1.61,0.42-2.19,0.58
				C3.09,10.9,2.4,13.87,2.4,15.42z"/>
			<path class="st1" d="M5.71,24.92c-0.05-0.56-0.01-1.37-0.01-1.37s3.11,1.95,4.64,2.09c0.42,1.3,2.46,2.88,2.88,3.01
				c-0.23,0.19-0.97,0.25-1.52,0.2C9.56,28.41,6.5,26.12,5.71,24.92z"/>
			<path class="st1" d="M11.32,5.04c0.49-1.02,2.3-2.35,2.76-2.51c1.12-0.23,3.85-0.17,4.54,0.13c1.28,0.95,2.18,1.99,2.34,2.38
				c-1.64,0.23-4.48,1.38-4.68,1.8C15.68,6.19,12.11,5.14,11.32,5.04z"/>
			<path class="st1" d="M25.91,8.81c1.15,0,1.94,0.46,2.16,0.75s1.54,2.89,1.54,6.3c-0.3,0.85-0.72,1.77-0.95,1.9
				c-0.36-1.48-2.23-3.54-2.59-3.74C26.47,12.95,26.34,9.99,25.91,8.81z"/>
			<path class="st1" d="M22.34,25.64c0.95-0.13,4-1.78,4.39-2.09c0,0.78-0.22,1.12-0.66,1.63c-0.85,1-3.54,3.02-5.12,3.51
				c-0.62,0.16-1.12,0.1-1.51,0C20.7,27.9,22.17,26.36,22.34,25.64z"/>
		</g>
		<g>
			<radialGradient id="SVGID_2_" cx="48" cy="15.9914" r="13.595" fx="41.0008" fy="15.9502" gradientUnits="userSpaceOnUse">
				<stop  offset="0" style="stop-color:#F5F7FA"/>
				<stop  offset="0.3377" style="stop-color:#F2F5F8"/>
				<stop  offset="0.5542" style="stop-color:#EAEDF3"/>
				<stop  offset="0.7366" style="stop-color:#DBE1E9"/>
				<stop  offset="0.8992" style="stop-color:#C6CFDB"/>
				<stop  offset="1" style="stop-color:#B5C1D0"/>
			</radialGradient>
			<circle class="st2" cx="48" cy="15.99" r="13.59"/>
			<path class="st1" d="M41.95,16.02l5.25-3.64l4.82,4.17l-2.1,5.51c0,0-5.66-0.05-6.12-0.11C43.01,20.58,42.15,17.04,41.95,16.02z"/>
			<path class="st1" d="M35.04,17.1c0.32-1.28,2-3.23,2.4-3.43c-0.34-1.56,0.31-4.93,0.6-5.23c-0.74,0-1.45,0.32-1.65,0.44
				c-1.62,2.56-1.87,4.92-1.92,5.9C34.48,15.23,34.9,16.83,35.04,17.1z"/>
			<path class="st1" d="M47.71,6.87c0.61-0.46,4.18-1.48,4.88-1.49c-0.26-1.35-1.54-2.56-1.83-2.64c-0.3-0.09-4.76-0.16-5.31,0
				c-0.55,0.16-2.08,1.93-2.19,2.16C44.31,5.14,47.05,6.45,47.71,6.87z"/>
			<path class="st1" d="M57.86,9.44c0,1.28-0.27,4.47-0.38,5.23c0.54,0.47,2.45,3.33,2.56,3.62c0.52-0.61,1.46-2.64,1.51-2.86
				c0-1.7-0.93-4.9-1.41-5.4C59.49,9.67,58.14,9.46,57.86,9.44z"/>
			<path class="st1" d="M57.63,25.57c0.16-0.68,0.2-1.61,0.11-1.75c-0.75,0.83-3.37,1.94-4.61,2.13c-0.78,1.03-2.67,2.78-2.94,2.93
				c0.61,0.06,1.96-0.02,2.3-0.05C53.69,28.59,56.78,26.65,57.63,25.57z"/>
			<path class="st1" d="M36.4,23.08c1.06,0.79,3.27,1.96,4.22,2.16c0.64,1.33,2.69,3.41,3.26,3.69C40.21,27.82,37.6,25.17,36.4,23.08z
				"/>
		</g>
		<g>
			<radialGradient id="SVGID_3_" cx="80.006" cy="15.9914" r="13.595" fx="73.0068" fy="15.9502" gradientUnits="userSpaceOnUse">
				<stop  offset="0" style="stop-color:#F5F7FA"/>
				<stop  offset="0.3377" style="stop-color:#F2F5F8"/>
				<stop  offset="0.5542" style="stop-color:#EAEDF3"/>
				<stop  offset="0.7366" style="stop-color:#DBE1E9"/>
				<stop  offset="0.8992" style="stop-color:#C6CFDB"/>
				<stop  offset="1" style="stop-color:#B5C1D0"/>
			</radialGradient>
			<circle class="st3" cx="80.01" cy="15.99" r="13.59"/>
			<path class="st1" d="M77.94,12.4c-1.01,0.49-4.87,3.22-5.26,3.59c0.2,1.33,1.25,5.17,1.53,5.68c1.38,0.39,5.39,0.57,5.85,0.54
				c0.86-0.81,2.51-4.94,2.58-5.36C82.02,15.97,78.75,13.06,77.94,12.4z"/>
			<path class="st1" d="M66.82,16.41c-0.25-0.17-0.44-1.4-0.42-1.75s0.55-4.03,2.45-6.49c0.35-0.14,0.82-0.25,1.05-0.25
				c-0.52,0.79-1.06,2.34-1.06,5.34C68.15,13.61,66.94,15.6,66.82,16.41z"/>
			<path class="st1" d="M88.42,15.23c0.37-0.84,0.93-4.87,0.74-5.46c1.45,0.17,2.58,0.81,2.88,1.01s1.21,3.52,1.23,4.28
				c0.02,0.76,0.15,1.43,0,1.7c-0.15,0.27-1.75,2.16-2.02,2.41C90.88,18.32,89.17,15.87,88.42,15.23z"/>
			<path class="st1" d="M74.52,28.49c-0.06-0.11-0.16-0.37-0.11-0.49c-1.05-0.82-2.42-2.31-2.64-3.03c-1.25-0.54-3.25-2.37-3.5-2.7
				c0,0.37,0.14,1.01,0.35,1.37C70.47,26.12,72.33,27.43,74.52,28.49z"/>
			<path class="st1" d="M88.57,24.75c0.15,0.36,0.19,1.32,0.07,1.73c-1.85,1.65-4.77,2.72-5.77,2.85c-0.5,0.03-1.77-0.19-2.09-0.43
				c0.81-0.2,2.56-2.01,2.71-2.62C84.56,26.36,87.7,25.71,88.57,24.75z"/>
			<path class="st1" d="M79.01,6.84c1-0.71,4.85-1.46,5.46-1.34C84.35,4.7,83.74,3.32,83.3,3c-1.93-0.52-4.81-0.42-5.56-0.23
				c-0.66,0.32-2.31,1.54-2.52,1.96C76.14,4.96,78.36,6.09,79.01,6.84z"/>
		</g>
		<g>
			<radialGradient id="SVGID_4_" cx="112.0039" cy="15.9914" r="13.595" fx="105.0047" fy="15.9502" gradientUnits="userSpaceOnUse">
				<stop  offset="0" style="stop-color:#F5F7FA"/>
				<stop  offset="0.3377" style="stop-color:#F2F5F8"/>
				<stop  offset="0.5542" style="stop-color:#EAEDF3"/>
				<stop  offset="0.7366" style="stop-color:#DBE1E9"/>
				<stop  offset="0.8992" style="stop-color:#C6CFDB"/>
				<stop  offset="1" style="stop-color:#B5C1D0"/>
			</radialGradient>
			<circle class="st4" cx="112" cy="15.99" r="13.59"/>
			<path class="st1" d="M113.36,16.73c-0.74,1.11-2.56,4.77-2.66,5.46c-1.01,0-5.44-0.93-5.81-1.23c-0.42-0.86-1.08-5.49-1.08-5.9
				c0.96-0.79,4.77-2.76,5.12-2.8C110.06,12.99,113.21,16.46,113.36,16.73z"/>
			<path class="st1" d="M119.48,15.43c0.96,1.08,2.73,3.67,2.88,4.23c1.28-0.74,2.66-2.44,2.8-2.78c0-1.45-0.32-4.6-0.49-4.9
				c-0.76-0.66-2.9-1.67-3.91-1.82C120.81,12.4,119.8,14.91,119.48,15.43z"/>
			<path class="st1" d="M116.14,5.68c0.3-0.64,0.15-2.07-0.17-2.52c-1.55-0.54-3.82-0.78-6.05-0.46c-0.93,0.17-2.46,1.53-2.68,1.8
				c0.74,0.05,3.07,1.7,3.44,2.07C112.27,5.96,115.64,5.61,116.14,5.68z"/>
			<path class="st1" d="M101.62,7.14c-1.35,2.98-1.23,4.55-1.13,5.14c-1.23,0.54-1.92,2.12-2.09,3.03
				C98.55,12.38,99.9,9.05,101.62,7.14z"/>
			<path class="st1" d="M99.66,21.77c1.57,1.82,2.68,2.41,2.9,2.48c0.2,1.06,2.83,3.62,3.35,3.84
				C102.78,26.77,100.59,23.67,99.66,21.77z"/>
			<path class="st1" d="M111.56,28.86c1.57,0.64,3.23,0.36,4.2,0.2c1.27-0.2,3.67-1.58,4.02-1.95c0.39-0.86-0.17-1.77-0.3-2.02
				c-0.57,0.59-4.11,1.35-5.51,1.4C113.36,27.68,112.08,28.71,111.56,28.86z"/>
		</g>
		<g>
			<radialGradient id="SVGID_5_" cx="144" cy="16.0223" r="13.595" fx="137.0008" fy="15.9811" gradientUnits="userSpaceOnUse">
				<stop  offset="0" style="stop-color:#F5F7FA"/>
				<stop  offset="0.3377" style="stop-color:#F2F5F8"/>
				<stop  offset="0.5542" style="stop-color:#EAEDF3"/>
				<stop  offset="0.7366" style="stop-color:#DBE1E9"/>
				<stop  offset="0.8992" style="stop-color:#C6CFDB"/>
				<stop  offset="1" style="stop-color:#B5C1D0"/>
			</radialGradient>
			<circle class="st5" cx="144" cy="16.02" r="13.59"/>
			<path class="st1" d="M139.72,11.99c-0.59,0.13-4.53,2.1-4.82,2.49c0,0.95,0.3,5.41,0.49,5.84c0.52,0.46,4.82,1.57,5.41,1.64
				c0.89-0.98,2.98-4.95,3.05-5.38C143.2,15.79,140.38,12.41,139.72,11.99z"/>
			<path class="st1" d="M130.58,13.91c0.34-3.2,2.66-6.72,3.52-7.21c-0.96,1.8-2.14,4.01-2.04,5.29
				C131.44,12.21,130.58,13.49,130.58,13.91z"/>
			<path class="st1" d="M139.38,4.19c1.56-1.21,3.16-1.8,3.55-1.82c0.39-0.02,2.66,0.05,3.03,0.12c0.37,0.07,1.87,0.51,2.16,0.78
				c0.2,0.91-0.05,2.19-0.12,2.46c-1.6,0-5.53,0.34-5.95,0.66C141.55,5.64,139.81,4.31,139.38,4.19z"/>
			<path class="st1" d="M151.88,10.39c0.02,1.38-1.45,5.09-1.62,5.51c0.79,0.69,2.8,3.67,2.88,4.26c1.03-0.44,3.03-2.14,3.27-2.48
				c0.2-2.83-0.2-5.24-0.34-5.51C155.03,11.35,153.11,10.68,151.88,10.39z"/>
			<path class="st1" d="M136.36,27.21c-1.08-1.23-2.46-2.93-2.76-3.69c-0.59-0.32-1.84-1.77-2.14-2.29
				C131.88,22.61,133.95,25.81,136.36,27.21z"/>
			<path class="st1" d="M142.29,28.76c0.96-0.76,2.02-2.02,2.07-2.36c1.45,0.1,5.51-0.52,5.88-0.79c0.44,0.74,0.64,1.55,0.61,1.77
				c-1.67,1.12-3.67,1.85-4.85,1.92C144.82,29.38,142.93,29.11,142.29,28.76z"/>
		</g>
		<g>
			<radialGradient id="SVGID_6_" cx="176" cy="15.9914" r="13.595" fx="169.0008" fy="15.9502" gradientUnits="userSpaceOnUse">
				<stop  offset="0" style="stop-color:#F5F7FA"/>
				<stop  offset="0.3377" style="stop-color:#F2F5F8"/>
				<stop  offset="0.5542" style="stop-color:#EAEDF3"/>
				<stop  offset="0.7366" style="stop-color:#DBE1E9"/>
				<stop  offset="0.8992" style="stop-color:#C6CFDB"/>
				<stop  offset="1" style="stop-color:#B5C1D0"/>
			</radialGradient>
			<circle class="st6" cx="176" cy="15.99" r="13.59"/>
			<path class="st1" d="M165.94,14c-0.07,0.47,0.15,5.53,0.27,5.73c0.25,0.3,4.87,1.94,5.09,1.97c0.3-0.37,2.8-4.7,2.85-5.02
				c-0.1-0.54-3.22-4.77-3.44-4.85C170.29,11.88,166.23,13.83,165.94,14z"/>
			<path class="st1" d="M166.34,6.43c-0.18,0.67-2.28,3.18-2.6,4.82c-0.28,0.07-0.8,0.77-0.88,1.23
				C163.39,9.65,165.52,7.09,166.34,6.43z"/>
			<path class="st1" d="M173.64,6.25c0.82-0.25,5.33-0.33,5.72-0.2c0.26-0.67,0.74-2.23,0.93-2.46c-0.54-0.67-4.03-1.08-4.66-1.07
				s-3.77,0.97-4.17,1.46C171.92,4.51,173.4,6.02,173.64,6.25z"/>
			<path class="st1" d="M183.39,10.89c-0.16,0.82-2.25,5.12-2.44,5.38c0.43,0.46,2.9,4.02,3.02,4.51c1.02-0.46,3.59-2.23,3.79-2.48
				c0.2-0.25,0.05-4.54,0.02-4.84C187.62,12.58,185.01,11.38,183.39,10.89z"/>
			<path class="st1" d="M167.54,26.63c-1.08-1.2-2.54-3.22-2.7-3.85c-0.28-0.25-1.16-1.28-1.39-1.62
				C164.17,23.19,166.16,25.77,167.54,26.63z"/>
			<path class="st1" d="M174.83,26.45c0.75,0.16,5.41-0.21,5.77-0.48c0.51,1.08,1.31,1.94,1.48,2.07c-1.54,0.9-4.5,1.49-5.49,1.39
				c-0.78-0.07-3.21-0.49-3.66-0.85C173.38,28.31,174.79,26.68,174.83,26.45z"/>
		</g>
		<g>
			<radialGradient id="SVGID_7_" cx="208" cy="15.9914" r="13.595" fx="201.0008" fy="15.9502" gradientUnits="userSpaceOnUse">
				<stop  offset="0" style="stop-color:#F5F7FA"/>
				<stop  offset="0.3377" style="stop-color:#F2F5F8"/>
				<stop  offset="0.5542" style="stop-color:#EAEDF3"/>
				<stop  offset="0.7366" style="stop-color:#DBE1E9"/>
				<stop  offset="0.8992" style="stop-color:#C6CFDB"/>
				<stop  offset="1" style="stop-color:#B5C1D0"/>
			</radialGradient>
			<circle class="st7" cx="208" cy="15.99" r="13.59"/>
			<path class="st1" d="M203.62,3.99c0.2,0.44,1.23,1.97,1.55,2.21c0.84,0.12,5.63,0.12,6.05-0.05c0.47-0.52,1.3-1.89,1.35-2.24
				c-0.91-0.66-3.64-1.43-4.48-1.38C207.26,2.59,204.58,3.2,203.62,3.99z"/>
			<path class="st1" d="M198.77,5.91c-0.66,0.96-2.63,3.37-2.85,4.55c-0.34,0.12-0.69,0.89-0.81,1.23
				C195.6,9.74,197.59,7.09,198.77,5.91z"/>
			<path class="st1" d="M217.17,6.05c0.89,1.13,2.56,3.44,2.66,4.08c0.32,0.2,0.86,0.96,1.01,1.3C220.12,9.33,218.33,6.82,217.17,6.05
				z"/>
			<path class="st1" d="M219.19,19.26c0.2-0.96,0.22-5.17,0.02-5.51c-0.2-0.34-4.35-2.26-4.62-2.19c-0.27,0.07-2.85,4.8-2.88,5.07
				c-0.02,0.27,2.73,4.58,3.03,4.7C215.03,21.45,218.87,19.61,219.19,19.26z"/>
			<path class="st1" d="M205.04,16.78c-0.49-0.74-2.98-4.77-3.03-5.17c-0.74-0.02-4.5,1.82-4.67,2.12c-0.17,0.3-0.17,5.44,0,5.71
				c0.17,0.27,4.16,2.02,4.53,2.04C202.24,21.5,204.82,17.17,205.04,16.78z"/>
			<path class="st1" d="M205.32,26.62c0.59,0.1,5.58-0.07,6-0.15c0.42,0.64,1.4,1.8,1.62,1.99c-2.46,1.48-6.94,1.48-9.15,0.02
				C204.55,27.87,205.29,26.81,205.32,26.62z"/>
		</g>
		<g>
			<radialGradient id="SVGID_8_" cx="240" cy="15.9914" r="13.595" fx="233.0008" fy="15.9502" gradientUnits="userSpaceOnUse">
				<stop  offset="0" style="stop-color:#F5F7FA"/>
				<stop  offset="0.3377" style="stop-color:#F2F5F8"/>
				<stop  offset="0.5542" style="stop-color:#EAEDF3"/>
				<stop  offset="0.7366" style="stop-color:#DBE1E9"/>
				<stop  offset="0.8992" style="stop-color:#C6CFDB"/>
				<stop  offset="1" style="stop-color:#B5C1D0"/>
			</radialGradient>
			<circle class="st8" cx="240" cy="15.99" r="13.59"/>
			<path class="st1" d="M235.63,16.34c-0.34-0.66-2.29-4.43-2.51-5.14c-0.79-0.1-4.28,1.5-4.53,1.8c-0.25,0.3-0.27,5.36-0.12,5.71
				c0.15,0.34,3.74,2.24,3.98,2.21C232.7,20.89,235.33,16.78,235.63,16.34z"/>
			<path class="st1" d="M235.63,3.62c0.22,0.57,1.03,2.46,1.21,2.63c0.66-0.15,5.39-0.37,5.81-0.1c0.44-0.44,1.72-1.89,1.99-2.14
				C242.44,2.19,238.43,1.99,235.63,3.62z"/>
			<path class="st1" d="M242.17,16.58c0.52,0.81,2.95,4.92,2.98,5.19c0.59,0.1,4.82-1.8,4.99-2.09c0.17-0.3,0.52-5.56,0.22-5.81
				c-0.3-0.25-4.43-2.19-4.75-2.12C245.44,12.2,242.73,16.26,242.17,16.58z"/>
			<path class="st1" d="M249.47,6.18c1.01,1.28,2.76,4.55,2.8,4.9c0.27,0.22,0.79,0.96,0.86,1.28C252.75,10.6,251.25,7.92,249.47,6.18
				z"/>
			<path class="st1" d="M252.6,21.35c-0.96,1.13-1.18,1.3-1.33,1.5c-0.07,0.47-1.89,3.03-2.29,3.39
				C250.63,24.77,252.45,21.94,252.6,21.35z"/>
			<path class="st1" d="M243.45,28.68c-0.54-0.66-1.62-2.02-1.8-2.36c-0.74,0.2-5.46-0.07-5.88-0.22c-0.34,0.42-1.13,1.77-1.3,2.02
				c0.59,0.61,3.62,1.43,4.67,1.4C240.2,29.5,242.91,29.05,243.45,28.68z"/>
		</g>
		<g>
			<radialGradient id="SVGID_9_" cx="272" cy="15.9914" r="13.595" fx="265.0008" fy="15.9502" gradientUnits="userSpaceOnUse">
				<stop  offset="0" style="stop-color:#F5F7FA"/>
				<stop  offset="0.3377" style="stop-color:#F2F5F8"/>
				<stop  offset="0.5542" style="stop-color:#EAEDF3"/>
				<stop  offset="0.7366" style="stop-color:#DBE1E9"/>
				<stop  offset="0.8992" style="stop-color:#C6CFDB"/>
				<stop  offset="1" style="stop-color:#B5C1D0"/>
			</radialGradient>
			<circle class="st9" cx="272" cy="15.99" r="13.59"/>
			<path class="st1" d="M268.26,6.05c1.13-0.2,5.44,0.37,5.88,0.57c0.49-0.54,2.24-2.14,2.46-2.29c-0.32-0.59-3.81-1.8-4.5-1.8
				s-3.81,0.81-4.16,1.08C268.08,4.36,268.26,5.49,268.26,6.05z"/>
			<path class="st1" d="M281.96,6.79c0.96,1.89,2.07,4.03,2.07,4.8c0.61,0.1,1.3,2.09,1.4,2.46C285.03,11.29,283.83,8.73,281.96,6.79z
				"/>
			<path class="st1" d="M263.98,10.87c0.17,0.69,1.92,4.97,2.29,5.29c-0.64,0.52-3,3.91-2.98,4.45c-1.03-0.32-3.32-2.26-3.52-2.56
				c-0.2-0.3,0.17-5.34,0.32-5.56S263.43,10.9,263.98,10.87z"/>
			<path class="st1" d="M272.81,16.85c0.42,0.66,2.63,4.8,2.78,5.14c0.74-0.05,4.8-1.25,5.21-1.48c0.42-0.22,0.71-5.49,0.61-5.85
				s-4.45-2.46-4.85-2.44C276.3,12.84,273.25,16.41,272.81,16.85z"/>
			<path class="st1" d="M274.06,29.1c-0.27-0.39-1.8-2.21-1.87-2.53c-0.66,0.12-5.41-0.54-5.98-0.76c-0.05,0.69-0.61,1.89-0.86,2.06
				C266.76,28.78,270.7,29.85,274.06,29.1z"/>
			<path class="st1" d="M279.72,27.18c1.62-1.55,2.73-2.9,2.8-3.57c0.52-0.17,1.94-2.02,2.16-2.56
				C283.33,24.04,281.86,25.83,279.72,27.18z"/>
		</g>
		<g>
			<radialGradient id="SVGID_10_" cx="304" cy="15.9914" r="13.595" fx="297.0008" fy="15.9502" gradientUnits="userSpaceOnUse">
				<stop  offset="0" style="stop-color:#F5F7FA"/>
				<stop  offset="0.3377" style="stop-color:#F2F5F8"/>
				<stop  offset="0.5542" style="stop-color:#EAEDF3"/>
				<stop  offset="0.7366" style="stop-color:#DBE1E9"/>
				<stop  offset="0.8992" style="stop-color:#C6CFDB"/>
				<stop  offset="1" style="stop-color:#B5C1D0"/>
			</radialGradient>
			<circle class="st10" cx="304" cy="15.99" r="13.59"/>
			<path class="st1" d="M305.72,6.72c0.61-0.66,2.58-2.14,3.1-2.29c-0.54-0.69-3.35-1.8-4.55-1.87c-1.21-0.07-4.03,0.76-4.21,0.98
				c-0.1,0.57,0.05,2.36,0.1,2.48C300.8,5.91,305.1,6.42,305.72,6.72z"/>
			<path class="st1" d="M295.66,10.58c0.05,1.03,1.13,4.8,1.5,5.24c-1.01,0.76-2.93,3.74-2.93,4.18c-0.76-0.22-3-2.34-3.05-2.76
				s0.44-4.7,0.64-5.12C292.02,11.71,295.07,10.58,295.66,10.58z"/>
			<path class="st1" d="M303.5,16.9c0.37,0.47,2.48,4.94,2.56,5.26c0.81,0.07,5.21-1.01,5.58-1.16c0.49-0.93,1.03-5.53,1.01-5.83
				c-0.42-0.49-4.65-2.73-4.99-2.76C307.27,13.11,304.05,16.58,303.5,16.9z"/>
			<path class="st1" d="M305.05,29.15c-0.66-0.54-2.22-2.37-2.41-2.53c-0.61-0.02-5.14-0.93-5.61-1.3c-0.32,0.57-0.52,1.43-0.39,1.92
				c0.79,0.96,4.4,2.14,5.41,2.21C303.06,29.52,304.73,29.27,305.05,29.15z"/>
			<path class="st1" d="M311.11,27.56c1.62-0.66,4.56-4.05,5.34-6.09c-1.06,1.28-2.09,2.68-2.68,2.8
				C313.61,25.07,311.47,27.27,311.11,27.56z"/>
			<path class="st1" d="M317.53,14.96c-0.37-1.38-1.55-2.93-1.84-2.95c0.25-1.11-1.25-4.82-1.77-5.29
				C315.84,8.44,317.53,12.57,317.53,14.96z"/>
		</g>
		<g>
			<radialGradient id="SVGID_11_" cx="336" cy="15.9914" r="13.595" fx="329.0008" fy="15.9502" gradientUnits="userSpaceOnUse">
				<stop  offset="0" style="stop-color:#F5F7FA"/>
				<stop  offset="0.3377" style="stop-color:#F2F5F8"/>
				<stop  offset="0.5542" style="stop-color:#EAEDF3"/>
				<stop  offset="0.7366" style="stop-color:#DBE1E9"/>
				<stop  offset="0.8992" style="stop-color:#C6CFDB"/>
				<stop  offset="1" style="stop-color:#B5C1D0"/>
			</radialGradient>
			<circle class="st11" cx="336" cy="15.99" r="13.59"/>
			<path class="st1" d="M338.51,12.38c-0.49,0.33-4.3,4.1-4.39,4.49c0.03,0.62,1.94,4.99,2.33,5.28c0.39,0.3,5.51-0.66,5.77-0.85
				c0.26-0.2,1.51-5.54,1.34-5.81C343.4,15.24,339.4,12.81,338.51,12.38z"/>
			<path class="st1" d="M327.89,15.2c-0.52,0.69-2.79,3.54-2.79,4.03c-1.12-0.56-2.56-2.92-2.49-3.44c0.07-0.52,0.59-4.1,0.95-4.53
				s2.85-1.48,3.38-1.44C326.87,10.68,327.62,14.71,327.89,15.2z"/>
			<path class="st1" d="M337.04,6.68c0.95-0.72,3.12-1.94,3.71-2.07c-0.36-0.89-2.66-2.16-4.46-2.16c-1.8,0-3.31,0.49-3.8,0.79
				s-0.85,1.94-0.72,2.33C332.94,5.53,336.55,6.25,337.04,6.68z"/>
			<path class="st1" d="M345.89,7.73c2.36,0.56,3.8,5.44,3.51,8.23c-0.59-1.94-1.48-2.98-2.2-3.21
				C347.63,11.3,346.78,8.55,345.89,7.73z"/>
			<path class="st1" d="M348.02,22.32c-1.02,1.08-2.62,2.16-3.28,2.33c-0.66,1.44-2.33,3.21-3.15,3.74
				C343.43,27.79,347.04,24.68,348.02,22.32z"/>
			<path class="st1" d="M333.1,26.39c-1.02,0.03-5.12-1.02-5.51-1.61c-0.33,0.85,0.03,1.7,0.43,2.1c0.82,0.82,3.38,2.1,4.49,2.23
				c1.12,0.13,2.76-0.03,3.18-0.13C334.51,28.39,333.3,26.88,333.1,26.39z"/>
		</g>
		<g>
			<radialGradient id="SVGID_12_" cx="368" cy="15.9914" r="13.595" fx="361.0008" fy="15.9502" gradientUnits="userSpaceOnUse">
				<stop  offset="0" style="stop-color:#F5F7FA"/>
				<stop  offset="0.3377" style="stop-color:#F2F5F8"/>
				<stop  offset="0.5542" style="stop-color:#EAEDF3"/>
				<stop  offset="0.7366" style="stop-color:#DBE1E9"/>
				<stop  offset="0.8992" style="stop-color:#C6CFDB"/>
				<stop  offset="1" style="stop-color:#B5C1D0"/>
			</radialGradient>
			<circle class="st12" cx="368" cy="15.99" r="13.59"/>
			<path class="st1" d="M368.52,6.84c0.92-0.72,3.41-1.8,4.26-1.9c-0.43-1.18-2.66-2.33-3.97-2.36c-1.31-0.03-4,0.39-4.39,0.75
				c-0.39,0.36-0.98,1.9-0.95,2.16C364.29,5.5,367.4,6.35,368.52,6.84z"/>
			<path class="st1" d="M369.34,12.58c1.02,0.43,4.99,3.08,5.21,3.44c-0.13,1.38-1.51,5.84-1.9,6.13c-0.95,0.23-5.38,0.23-5.84,0.13
				c-0.66-0.69-2.39-5.35-2.43-5.67C365.11,15.86,368.55,13.11,369.34,12.58z"/>
			<path class="st1" d="M358.24,9.63c-0.13,1.21,0.39,5.15,0.62,5.54c-0.95,0.39-2.62,3.02-2.62,3.74c-0.72-0.66-1.91-2.67-1.78-4.21
				c0.13-1.54,0.72-3.51,1.08-3.94C355.91,10.34,357.49,9.76,358.24,9.63z"/>
			<path class="st1" d="M366.16,29.18c-0.75-0.59-2.49-2.69-2.53-3.05c-0.82,0.1-4.69-1.21-5.18-1.87c-0.13,0.98,0.89,2.51,2.43,3.31
				C362.61,28.47,364.78,29.34,366.16,29.18z"/>
			<path class="st1" d="M372.55,28.52c1.44-0.95,2.82-2.79,2.98-3.28c1.21-0.39,3.74-2,3.94-2.49
				C379.21,24.49,375.28,28.39,372.55,28.52z"/>
			<path class="st1" d="M381.11,16.88c-0.56-1.84-2-3.28-2.46-3.38c0.36-1.08-0.2-4.56-0.82-5.18c1.89,0.02,2.68,1.98,3.07,3.3
				C381.3,12.92,381.82,15.01,381.11,16.88z"/>
		</g>
	</svg>

</svg>