<svg xmlns="http://www.w3.org/2000/svg" width="0" height="0">

	<svg id="sprite-ball" viewBox="0 0 480 32" size="keep">
		<style type="text/css">
			.st0{fill:#E8E8E8;}
			.st1{fill:#020202;}
		</style>
		<g>
			<circle class="st0" cx="16" cy="16" r="13.9"/>
			<path class="st1" d="M18.7,8.1c1.1,0.5,5.4,3.1,6,3.8c1-0.7,2.7-2.3,2.8-2.6c-0.6-1.2-2.4-3.7-3.7-4.7c-1.4-0.7-3.4-1-5.3-1 C18.5,5.2,18.7,8.1,18.7,8.1z"/>
			<path class="st1" d="M18.8,21.7c1.4-0.7,5.3-2.9,6-3.6c0.9,0.8,2.6,2.8,2.9,3.5c-0.8,1.7-2.6,4.3-3.7,5.2c-2,0.8-4.6,0.6-5.4,0.5 C18.5,26.2,18.7,22.1,18.8,21.7z"/>
			<path class="st1" d="M13.8,29.6C11,29.2,7.6,27.7,5.5,25c0.8,0.5,1.9,0.4,2.3,0.4c0.9,0.9,3.8,2.7,5.8,3.2 C13.7,29.1,13.7,29.5,13.8,29.6z"/>
			<path class="st1" d="M4.1,15.2c0.3,0.9,1.7,4,3.2,5.5c2.3-0.6,5.7-2.1,6-2.3c0-1.6,0-7-0.1-7.4c-1.3-0.6-5-1.6-5.8-1.7 C6,11.2,4.3,14.1,4.1,15.2z"/>
			<path class="st1" d="M6,6.5c2.5-2.9,6-3.9,7.8-4.1c-0.1,0.2-0.2,0.4-0.2,0.5C11.8,3,9,4.8,8.1,5.5C7.3,5.7,6.2,6.3,6,6.5z"/>
		</g>
		<g>
			<circle class="st0" cx="48" cy="16" r="13.9"/>
			<path class="st1" d="M50.6,7.1c1.6,0.8,5.4,3.2,6,3.8c1.2-0.7,2.5-1.7,2.7-2c-0.6-1.2-1.9-2.9-2.9-3.7s-2.6-1.9-5.9-1.9 C50.5,4.3,50.7,6.7,50.6,7.1z"/>
			<path class="st1" d="M45.8,2.3c0,0.1,0,0.1,0,0.2c-1.1,0.2-4.2,1.3-5.5,2.6c-0.4,0.1-1.4,0.6-1.8,0.9C40.6,3.8,43.5,2.7,45.8,2.3z" />
			<path class="st1" d="M45.3,9.9c0,0.8,0,6.9,0,7.3c-0.9,0.5-5.6,2.6-6,2.6c-1.1-1.3-3.1-4.4-3.2-5.3s2.7-5.4,3.4-5.8 C41.6,8.6,44.9,9.8,45.3,9.9z"/>
			<path class="st1" d="M37.3,24.8c0.9,0.5,2.3,0.1,2.5,0c1.2,1.2,4.9,3.3,5.8,3.4c0,0.5,0.2,1.3,0.4,1.5C42.7,29.3,39,27.3,37.3,24.8 z"/>
			<path class="st1" d="M59.7,21c-0.5-1.1-2.5-3.8-3-3.9c-1.3,0.9-5.4,3.3-6,3.4c0,1.2-0.2,5.7-0.1,6c1.3,0.4,4.7,0.2,5.4,0 C57.2,25.5,59.5,22.1,59.7,21z"/>
		</g>
		<g>
			<circle class="st0" cx="80" cy="16" r="13.9"/>
			<path class="st1" d="M91.1,8.4c-1.1,0.7-2.3,1.3-2.6,1.5c-1.2-1.1-4.7-3.3-6-3.7c0-1.7-0.1-3.1-0.2-3.3C87.7,3.3,89.4,6.1,91.1,8.4 z"/>
			<path class="st1" d="M91.8,20.2c-0.6-1.5-2.4-3.9-3-4.4c-1.8,1.3-5.7,3.2-6,3.3c0,1.4-0.1,6-0.1,6.4c1.3,0.4,4.1,0.7,5.5,0.4 C89.9,24.1,91.4,21.6,91.8,20.2z"/>
			<path class="st1" d="M77.4,8.7c-1.6-0.7-4.6-1-5.8-0.9c-1.3,1.4-3.2,4.6-3.4,5.8c0.7,2,2.4,4.4,3.1,5c2.3-1.1,5.6-2.8,6.1-2.9 C77.3,13.7,77.2,10.5,77.4,8.7z"/>
			<path class="st1" d="M69.1,24.5c1.4-0.1,2.2-0.5,2.5-0.6c1.7,1.5,4.8,3.3,5.9,3.6c0,0.7,0.1,1.9,0.3,2.1 C74.7,29.2,71.2,27.6,69.1,24.5z"/>
			<path class="st1" d="M70.8,5.6c1.2-0.9,1.4-0.8,1.5-0.9c1.1-0.9,3.5-2.2,5.5-2.5C75.3,2.6,72.3,4.1,70.8,5.6z"/>
		</g>
		<g>
			<circle class="st0" cx="112" cy="16" r="13.9"/>
			<path class="st1" d="M123,7.8c-1.1,0.4-2.3,0.9-2.5,1c-1.4-1.5-5.5-3.6-5.9-3.7c0.1-0.9-0.1-2.3-0.2-2.7C117,2.7,120.8,4.4,123,7.8 z"/>
			<path class="st1" d="M123.8,19.3c-0.2,1-2.3,4.8-3.6,5.8c-2.8,0.2-5.2-0.6-5.6-0.7c0.1-2,0.2-6.4,0.2-6.9c1.3-0.6,5.6-2.8,6-3 C122,16,123.5,18.3,123.8,19.3z"/>
			<path class="st1" d="M109.4,7.5c0,1.5-0.1,6.2,0,6.7c-1.2,0.7-5.8,3-6.1,3.2c-0.8-0.7-2.5-2.9-3-4.7c0.7-2.1,2.4-4.7,3.5-5.7 C106.1,6.6,109,7.4,109.4,7.5z"/>
			<path class="st1" d="M101,24.1c1.1-0.5,2.1-0.9,2.5-1.1c1.6,1.5,4.7,3.4,5.9,3.7c0.1,1,0.2,2.3,0.3,2.8 C105.7,29.2,101.9,26.2,101,24.1z"/>
		</g>
		<g>
			<circle class="st0" cx="144" cy="16" r="13.9"/>
			<path class="st1" d="M154.9,7.6c-1.5-2.5-5.5-4.8-8.6-5.2c0.2,1,0.2,1.7,0.2,2.1c2,0.7,4.9,2.3,5.8,3.4 C153.5,7.5,154.7,7.6,154.9,7.6z"/>
			<path class="st1" d="M152.7,13.4c-1.1,0.5-5.8,2.7-5.9,2.8c0,0.9-0.1,6.7-0.1,7.1c1,0.4,4.7,1.2,5.7,1c1.4-1.4,3.4-5.1,3.5-5.9 C155.2,16.7,153.6,14.2,152.7,13.4z"/>
			<path class="st1" d="M141.4,6.5c-1.2-0.4-4.5-0.5-5.5-0.2c-1.2,1.2-3.5,4.7-3.6,5.5c0.4,1.5,2.7,4.1,2.9,4.3c1.8-1,5.8-3.3,6.1-3.4 C141.3,12,141.3,7,141.4,6.5z"/>
			<path class="st1" d="M135.4,22.1c1.3,1.1,5.4,3.6,5.9,3.7c0,0.7,0.2,3.1,0.3,3.4c-2.8-0.1-4.6-1-5.8-1.9c-1.3-1-2.5-2.4-3.1-3.6 C133.6,23.3,135.1,22.2,135.4,22.1z"/>
			<path class="st1" d="M151.5,27.3c-0.5,0.6-3.1,2.1-5.2,2.4c4.3-0.7,6.5-2.9,7.2-3.6C152.3,26.9,151.8,27.2,151.5,27.3z"/>
		</g>
		<g>
			<circle class="st0" cx="176" cy="16" r="13.9"/>
			<path class="st1" d="M178.3,2.3c0.2,0.6,0.2,1.2,0.1,1.4c1.7,0.4,5.1,2.7,5.8,3.4c1-0.2,2.3-0.1,2.5,0.1 C185.1,4.9,181.4,2.9,178.3,2.3z"/>
			<path class="st1" d="M178.8,14.7c0,1.1,0,6.8-0.1,7.3c1.9,0.8,5.3,1.6,5.8,1.5c1.4-1.3,3.2-5,3.4-5.8c-0.5-1.5-2.8-5.1-3.3-5.3 C182.5,13.1,179.3,14.4,178.8,14.7z"/>
			<path class="st1" d="M173.4,5.7c-1.3-0.3-4.1-0.4-5.4,0.2c-1.7,1.2-3.4,4.5-3.6,5.2c0.4,1.4,2.6,3.7,2.9,3.9 c1.5-0.9,5.7-3.5,6.1-3.6C173.3,9.6,173.4,6.1,173.4,5.7z"/>
			<path class="st1" d="M167.4,21.1c1.3,1.1,5.4,3.7,6,3.7c0,1.4,0.1,3.7,0.2,4.1c-1.6,0.2-4.4-0.7-5.1-1.1c-0.7-0.4-3.4-3.1-3.8-4.5 C165.6,22.4,166.7,21.5,167.4,21.1z"/>
			<path class="st1" d="M186,25.7c-1.1,1.1-1.9,1.1-2.2,1.1c-0.5,0.8-4.5,2.7-5.4,2.7c-0.1,0.1-0.1,0.1-0.2,0.2 C181.2,29.4,185.1,26.9,186,25.7z"/>
		</g>
		<g>
			<circle class="st0" cx="208" cy="16" r="13.9"/>
			<path class="st1" d="M218.7,7.2c-1.4-1-2.5-0.9-2.7-0.8c-2-1.7-4.1-2.6-5.6-3.2c0-0.4-0.1-0.8-0.2-0.9 C213.3,2.8,216.5,4.5,218.7,7.2z"/>
			<path class="st1" d="M220,16.7c-0.1-1-2.5-5.1-3.4-5.6c-1.5,0.4-5.5,2-5.8,2.2c0,1.2,0,7,0,7.4c1,0.5,5.1,1.8,5.8,1.8 C217.5,21.6,219.9,17.6,220,16.7z"/>
			<path class="st1" d="M205.5,4.8c-1-0.3-4.5,0-5.4,0.6c-1.4,1-3.5,4.4-3.6,5c0.2,1,2.4,3.2,2.8,3.4c1-0.7,5.3-3.4,6.1-3.7 C205.4,9,205.4,5.5,205.5,4.8z"/>
			<path class="st1" d="M205.4,23.7c-1.8-0.9-5.7-3.4-6.1-3.8c-0.8,0.6-2.6,2.3-2.7,2.8c0.8,2,3.3,4.5,3.7,4.8s2.8,1.2,5.3,1 C205.5,27.1,205.4,24.3,205.4,23.7z"/>
			<path class="st1" d="M210.3,29.5c0-0.1,0.1-0.3,0.1-0.4c2.8-0.5,5.3-2.5,5.5-2.8c0.7,0,2.1-0.7,2.5-1.2 C216.5,27.4,212.9,29.4,210.3,29.5z"/>
		</g>
		<g>
			<circle class="st0" cx="240" cy="16" r="13.9"/>
			<path class="st1" d="M242.3,2.3c0,0.2,0,0.4,0.1,0.5c1.7,0.2,5.1,2.3,5.6,3c1.1,0.1,2.2,0.6,2.5,1.1C248.6,4.6,245.1,2.8,242.3,2.3 z"/>
			<path class="st1" d="M248.6,10c-1.6,0.2-5.6,1.6-5.8,1.8c0,1.6,0,7.2,0,7.5c1.1,0.6,5.6,2.1,5.9,2.1c0.9-1,3.3-4.8,3.3-5.7 C251.7,14.7,249.8,11.3,248.6,10z"/>
			<path class="st1" d="M237.4,8.8c-1.1,0.5-5.6,3.3-6.1,3.8c-1.2-0.9-2.6-2.6-2.7-2.8c0.8-1.9,3.1-4.4,3.7-4.9 c0.6-0.4,3.1-1.1,5.3-0.8C237.4,5.3,237.3,8.4,237.4,8.8z"/>
			<path class="st1" d="M228.5,22c0.5-1.3,2.4-3.1,2.7-3.3c1,0.9,5.6,3.5,6.1,3.6c0,1.1,0.1,5,0.2,5.3c-1.3,0.2-4.3-0.1-5.3-0.6 C230.3,25.3,228.8,22.9,228.5,22z"/>
			<path class="st1" d="M242.3,29.7c0.1-0.4,0.1-0.7,0.1-0.8c1.2-0.2,5.1-2.3,5.7-3.1c1.1,0.1,2-0.2,2.6-0.8 C249.9,26,246.4,29.1,242.3,29.7z"/>
		</g>
		<g>
			<circle class="st0" cx="272" cy="16" r="13.9"/>
			<path class="st1" d="M283.9,14.8c-0.3,1.1-2.6,5-3.2,5.4c-1.3-0.3-5.6-2.2-5.9-2.4c-0.1-1.3-0.1-7-0.1-7.3c1-0.5,4.7-1.4,5.8-1.4 C281.4,9.9,283.7,13.6,283.9,14.8z"/>
			<path class="st1" d="M269.4,7.6c-1.1,0.5-5.6,3.4-6,3.8c-1-0.4-2.6-1.9-2.7-2.2c0.8-1.6,2.8-4,3.5-4.3c0.6-0.4,3-1.5,5.5-1.2 C269.5,4.9,269.4,7.1,269.4,7.6z"/>
			<path class="st1" d="M263.2,17.6c-0.8,0.7-2.7,3.2-2.8,3.7c0.9,2.6,3.4,5.1,3.7,5.4c1.2,0.5,4.5,0.6,5.4,0.3c0-0.9-0.2-5.4-0.2-5.8 C267.9,20.6,264.2,18.2,263.2,17.6z"/>
			<path class="st1" d="M274.3,2.4c0,0.1,0.1,0.1,0.1,0.2c2.2,0.6,4.8,1.9,5.6,2.7c0.6,0.1,1.8,0.7,2,1C279.7,4.3,277.2,2.8,274.3,2.4 z"/>
			<path class="st1" d="M282.7,24.9c-1.3,0.4-2.1,0.3-2.5,0.2c-0.9,1-4.2,2.9-5.6,3.3c0,0.5-0.2,1.2-0.3,1.3 C277.6,29.4,281.6,26.6,282.7,24.9z"/>
		</g>
		<g>
			<circle class="st0" cx="304" cy="16" r="13.9"/>
			<path class="st1" d="M313.7,6c-1.4-1.1-1.9-1.3-2.1-1.3c-0.3-0.4-3-1.9-5.3-2.4C310.3,2.8,312.2,4.9,313.7,6z"/>
			<path class="st1" d="M306.8,8.9c1.8-0.6,4.5-1.1,5.7-1.1c1.4,1.5,3.3,5.2,3.4,5.9c-0.7,2.3-2.7,4.7-3.2,5.1c-2.5-1.3-5.6-2.4-6-2.8 C306.8,13.3,306.7,9.6,306.8,8.9z"/>
			<path class="st1" d="M301.6,2.8c-1.8-0.1-6.4,0.6-8.8,5.5c0.8,0.7,2.4,1.7,2.6,1.7c1-0.9,4.7-3.3,5.9-3.8 C301.4,5.2,301.6,3.2,301.6,2.8z"/>
			<path class="st1" d="M301.3,19.4c-1.3-0.7-5.7-3.1-6.1-3.4c-0.9,0.8-2.8,3.5-2.9,4.2c0.2,1.3,3,5.1,3.6,5.6 c1.5,0.4,4.8,0.1,5.5-0.1C301.3,23.9,301.2,20.2,301.3,19.4z"/>
			<path class="st1" d="M306.3,29.6c0.1-0.7,0.2-1.5,0.2-1.8c1.7-0.6,5.2-2.7,5.8-3.5c1,0.2,2.2,0.4,2.6,0.4 C314.3,25.5,310.2,29.4,306.3,29.6z"/>
		</g>
		<g>
			<circle class="st0" cx="336" cy="16" r="13.9"/>
			<path class="st1" d="M345.1,5.5c-1.3-0.8-1.7-1-1.9-1c-0.5-0.6-3.1-1.9-5.2-2.1C341.1,2.5,343.5,4.3,345.1,5.5z"/>
			<path class="st1" d="M333.4,5.3c-1.7,0.6-5.8,3.5-6,3.7c-1.2-0.7-2.4-1.1-2.5-1.1c2-3.3,5.5-5.3,8.8-5.4 C333.5,3.4,333.4,4.9,333.4,5.3z"/>
			<path class="st1" d="M344.8,17.6c1-1,3.1-4.2,3.1-4.9c-0.2-1-2.3-4.8-3.6-5.8c-1.9-0.1-5.1,0.5-5.5,0.7c-0.1,0.6,0,6.5,0,6.8 C339.7,15.1,344.5,17.6,344.8,17.6z"/>
			<path class="st1" d="M347,24.3c-0.8-0.1-2.3-0.7-2.6-0.9c-0.7,0.7-4.2,3.3-5.8,3.6c0,0.9-0.1,2.4-0.2,2.5 C341.3,29.4,345.5,27,347,24.3z"/>
			<path class="st1" d="M333.3,17.9c-2-0.9-5.6-2.9-6.1-3.2c-1.2,1.1-3,4.1-3,4.6c0.4,1.5,3,5.3,3.6,5.7c2.4,0.3,5.3-0.2,5.6-0.4 C333.3,22.9,333.2,18.6,333.3,17.9z"/>
		</g>
		<g>
			<circle class="st0" cx="368" cy="16" r="13.9"/>
			<path class="st1" d="M379.7,11.8c-0.2-0.9-2.3-4.7-3.6-5.6c-1.2-0.3-4.8,0-5.4,0.3c-0.1,0.6,0,6.2,0.1,6.5c0.1,0.2,5.8,3.3,6,3.3 C377.2,16.1,379.6,13.2,379.7,11.8z"/>
			<path class="st1" d="M379.1,24c-0.5-0.3-2.4-1.4-2.6-1.4c-0.6,0.7-4.1,3.1-5.9,3.7c-0.1,0.9-0.2,2.9-0.2,3.1 C373.7,29.2,377.2,27.3,379.1,24z"/>
			<path class="st1" d="M365.3,23.5c0-0.7,0-6.6-0.1-7c-0.4-0.2-5.7-2.9-6-3c-0.9,1-2.9,3.9-3.1,5c0.4,1.5,2.5,5,3.5,5.8 C361.4,24.5,364.9,23.7,365.3,23.5z"/>
			<path class="st1" d="M357.1,7.6c1.2-2.1,5.4-5,8.6-5.2c-0.2,1.1-0.2,1.9-0.2,2.3c-2,0.7-5.5,3.1-5.9,3.6 C358.7,7.8,357.4,7.6,357.1,7.6z"/>
			<path class="st1" d="M358.9,26.5c2.4,2.4,5.8,3.1,6.8,3.2c-1.7-0.4-4-1.2-4.9-2C360.2,27.4,359.5,26.9,358.9,26.5z"/>
		</g>
		<g>
			<circle class="st0" cx="400" cy="16" r="13.9"/>
			<path class="st1" d="M397.8,2.3c-2.3,0.3-6.5,2.2-8.5,4.9c1.2-0.2,2.2,0,2.4,0.2c1.3-1.2,4.3-3.1,5.8-3.5 C397.5,3.2,397.6,2.5,397.8,2.3z"/>
			<path class="st1" d="M402.7,5.6c0,1.3,0.1,5.6,0.1,6c1,0.6,5.7,3.2,6.1,3.6c1-0.9,2.9-3.6,2.9-4c0-0.4-1.9-4.1-3.7-5.6 C406.3,5,403.1,5.5,402.7,5.6z"/>
			<path class="st1" d="M397.3,15c-1.4-0.7-5.6-2.6-6-2.7c-0.9,0.9-3.1,4.6-3.1,5.3c0.3,1.1,2.3,5,3.5,5.9c1.9,0.1,5.4-1,5.7-1.2 C397.2,21,397.3,15.5,397.3,15z"/>
			<path class="st1" d="M402.4,28.7c0.1-0.7,0.1-3.3,0.2-3.7c1.2-0.5,5.3-3.1,6-3.8c1,0.6,2.5,1.7,2.6,2 C409.8,25.1,408.3,28.6,402.4,28.7z"/>
			<path class="st1" d="M392.3,27c-0.5-0.1-1.7-0.9-2.1-1.3c1.7,2.2,5.8,3.8,7.6,3.9C395.2,29,392.7,27.6,392.3,27z"/>
		</g>
		<g>
			<circle class="st0" cx="432" cy="16" r="13.9"/>
			<path class="st1" d="M443.6,10.7c-0.3,0.8-2.1,3.2-2.8,3.6c-1-0.7-5.7-3.5-6.1-3.6c-0.1-1.2-0.1-5.2-0.2-5.6c1.6-0.2,4.6,0,5.4,0.3 C441.3,6.6,443.4,9.8,443.6,10.7z"/>
			<path class="st1" d="M443.4,23c-0.4-0.7-2.2-2.2-2.7-2.5c-1,0.7-4.7,3.4-6,3.8c0,1.4-0.1,3.8-0.2,4.3c2.4,0.2,4.5-0.5,5-0.9 C440,27.3,442.6,25.2,443.4,23z"/>
			<path class="st1" d="M423.5,22.9c1.5-0.1,5.4-1.3,5.8-1.6c0-1.4,0-7,0-7.3c-1-0.4-5.5-2.3-5.9-2.3c-1.2,1.2-3.1,4.6-3.2,5.5 C420.5,18.8,422.7,22.2,423.5,22.9z"/>
			<path class="st1" d="M429.7,29.4c-2.3-0.7-5.1-2.2-5.6-2.8c-0.7,0-1.8-0.5-2.1-1c1.6,1.9,6,4.2,7.9,4.1 C429.8,29.7,429.7,29.4,429.7,29.4z"/>
			<path class="st1" d="M421.4,7c1.4-0.5,2.2-0.4,2.4-0.3c1.7-1.7,4.6-2.9,5.7-3.3c0-0.4,0-0.7,0.3-1.1C427.7,2.8,424.2,3.7,421.4,7z" />
		</g>
		<g>
			<circle class="st0" cx="464" cy="16" r="13.9"/>
			<path class="st1" d="M475.5,10c-0.3,1-2.5,2.8-2.8,3.1c-1.5-1-4.8-3.3-6-3.7c0-1.1-0.1-4.7-0.2-5c1.5-0.2,4.2,0.1,5.2,0.7 C472.8,5.6,475.2,8.9,475.5,10z"/>
			<path class="st1" d="M475.5,22.3c-0.2-0.6-2.3-2.8-2.8-3c-0.9,0.7-5.2,3.5-5.9,3.7c0,0.9-0.2,4.4-0.2,4.9c2.1,0.2,4.6-0.2,5.3-0.6 C472.8,26.6,475.3,23.4,475.5,22.3z"/>
			<path class="st1" d="M461.8,29.7c0-0.2-0.1-0.5-0.1-0.6c-1.6-0.4-5-2.2-5.7-3c-0.8,0-1.9-0.4-2.2-0.7 C455.1,27.2,459.3,29.5,461.8,29.7z"/>
			<path class="st1" d="M455.4,21.9c2.2-0.4,5.5-1.8,5.8-1.9c0-0.5,0-7,0-7.5c-1.1-0.5-4.9-1.8-5.8-2c-1.2,1.3-3.1,4.3-3.3,5.7 C452.6,17.9,454.4,20.9,455.4,21.9z"/>
			<path class="st1" d="M453.7,6.8c1.2-0.9,2-0.7,2.2-0.7c1.2-1,4.3-2.9,5.7-3.1c0-0.2,0-0.4,0.1-0.7C458.4,2.8,454.5,5.5,453.7,6.8z" />
		</g>
	</svg>

</svg>